P2
# 8-bit pgm gray
20 20
255
 94  78  78  97 103  99  81  49  38  46 124 126  40  37  35  33  30  33  38  66
 82  83  96 111  81  65  54  34  47  47 120 109  36  35  36  31  31  34  42  96
 93 112 103  91  63  55  61  34  41  47 130  72  43  41  31  30  36  52  93 144
109 126  96  60  43  38  43  35  36  75 129  66  88  47  29  35  60 107 146 182
106  98  79  45  43  35  40  36  43  98 126  96 107  44  40  68 118 150 181 185
 95  82  49  35  33  49  48  37  39 112 111  67 111  52  74 125 165 183 184 158
 72  47  37  34  43  49  43  35  49 134  87  44  74  92 130 161 189 185 144 133
 37  39  36  49  77  44  33  46  53 142  73  49 103 134 162 184 179 153 125 119
 35  37  49 100  85  32  26  31  72 146  79  98 145 163 187 163 149 133 121 133
 39  42  98 122  75  26  26  33  95 158 117 145 180 177 155 141 125 125 129 146
 44  88 136 121  34  31  29  48 124 164 149 183 185 144 126 123 121 124 147 170
 79 130 138  84  31  32  40  72 148 165 183 181 142 126 113 123 126 147 176 195
134 149 129  43  30  31  46 114 171 165 164 149 131 120 119 132 150 179 197 200
170 150 112  34  32  42  72 150 179 151 117 128 125 123 135 159 185 197 199 202
164 142  58  35  42  72 109 154 148 125  97 113 123 139 159 188 205 204 197 201
153 113  38  66  94 105 140 130 121 120  99 107 139 168 191 198 206 206 202 201
141  92  68 116 131 128 142  84 103 116 102 114 168 197 204 195 205 206 202 198
130 104 113 149 147 145 128  67  89 114 117 136 184 202 191 197 202 202 199 198
108 124 149 166 146 145 112  72 107 131 147 151 191 198 193 198 201 197 199 196
 95 125 158 130 147 132 110  86 123 160 179 161 191 193 197 197 196 197 192 193
