P2
20 20
255
0 0 0 0 0 0 0 0 0 0 0 0 0 0 0 0 0
0 0 0
0 160 123 67 145 154 151 170 108 189 74 64 198 139 121 136 136
148 206 0
0 96 117 109 145 136 84 159 131 216 8 179 183 124 140 141 154
181 140 0
0 59 118 159 157 150 132 138 171 139 34 229 59 142 161 169 176
114 114 0
0 131 108 161 118 155 132 140 161 102 74 116 59 187 175 168 107
122 83 0
0 99 161 148 161 106 112 139 199 77 89 207 14 222 172 105 94
92 74 0
0 165 145 153 148 117 125 159 183 12 142 212 174 148 106 118 77
73 172 0
0 131 155 172 60 143 153 105 209 0 183 229 123 118 120 73 97
139 161 0
0 144 191 54 85 174 145 174 161 23 226 152 102 123 46 138 134
144 160 0
0 207 96 55 104 179 139 186 136 42 182 129 76 77 140 132 160
140 149 0
0 131 51 43 229 128 154 184 97 82 172 72 57 161 156 146 142
166 140 0
0 77 72 128 176 135 146 181 82 131 72 76 175 143 165 132 161
144 116 0
0 88 71 216 144 152 190 117 68 123 97 137 140 146 150 149 148
110 103 0
0 109 68 200 147 162 178 65 53 116 189 124 135 153 147 134 107
114 128 0
0 63 208 179 183 139 132 67 120 144 184 133 150 144 144 106 101
122 145 0
0 109 255 146 105 142 71 114 144 115 155 161 139 126 102 121 123
126 129 0
0 178 201 90 99 140 59 216 129 110 161 177 100 93 97 150 122
123 128 0
0 165 145 87 117 105 93 216 159 128 156 148 99 100 157 129 128
127 135 0
0 123 102 58 148 94 136 199 120 134 123 156 98 120 140 127 122
140 121 0
0 0 0 0 0 0 0 0 0 0 0 0 0 0 0 0 0
0 0 0
