P2
20 20
255
0 0 0 0 0 0 0 0 0 0 0 0 0 0 0 0 0
0 0 0
0 90 94 91 85 73 59 48 42 71 91 88 59 37 34 32 34
43 66 0
0 100 97 82 67 55 46 42 44 74 88 88 59 42 34 35 46
66 99 0
0 102 89 69 52 46 41 41 49 80 93 95 67 52 40 49 72
104 137 0
0 93 74 53 42 41 40 39 56 85 97 100 75 65 57 79 112
143 164 0
0 73 56 44 40 42 41 41 64 88 97 91 76 80 87 118 149
166 166 0
0 54 45 43 45 46 42 42 71 88 90 79 80 103 123 152 169
167 153 0
0 43 47 56 57 48 37 43 78 92 94 83 100 132 152 167 166
153 138 0
0 45 63 76 67 47 33 46 86 103 111 109 132 156 162 160 150
137 131 0
0 63 88 91 69 40 31 53 96 122 137 142 157 162 153 143 133
130 136 0
0 88 106 93 61 35 37 68 111 144 160 162 162 149 136 128 128
135 150 0
0 114 113 82 48 33 49 88 130 159 166 162 151 134 125 125 136
151 170 0
0 132 107 70 39 39 66 110 146 160 155 146 136 126 127 137 155
172 188 0
0 134 94 57 40 52 87 127 150 146 134 127 127 130 141 159 177
190 197 0
0 122 83 56 58 78 108 133 142 128 117 116 129 144 162 180 194
200 201 0
0 107 80 72 87 107 118 125 122 114 110 118 140 165 182 194 201
203 201 0
0 105 95 102 120 128 118 111 104 108 113 129 157 182 193 198 201
203 201 0
0 114 120 131 141 136 113 100 98 113 125 145 171 192 197 198 200
201 199 0
0 122 135 145 145 134 110 99 105 129 143 161 178 193 196 196 198
198 197 0
0 0 0 0 0 0 0 0 0 0 0 0 0 0 0 0 0
0 0 0
