P2
10 10
255
0 0 0 0 0 0 0 0 0 0
0 127 127 127 255 0 127 127 127 0
0 127 127 127 255 0 127 127 127 0
0 127 127 127 255 0 127 127 127 0
0 127 127 127 255 0 127 127 127 0
0 127 127 127 255 0 127 127 127 0
0 127 127 127 255 0 127 127 127 0
0 127 127 127 255 0 127 127 127 0
0 127 127 127 255 0 127 127 127 0
0 0 0 0 0 0 0 0 0 0
