P2
10 10
255
0 0 0 0 0 0 0 0 0 0
0 100 100 100 100 100 100 100 100 0
0 100 100 100 100 100 100 100 100 0
0 100 100 100 0 0 100 100 100 0
0 100 100 0 255 255 0 100 100 0
0 100 100 0 255 255 0 100 100 0
0 100 100 100 0 0 100 100 100 0
0 100 100 100 100 100 100 100 100 0
0 100 100 100 100 100 100 100 100 0
0 0 0 0 0 0 0 0 0 0
