P2
10 10
255
0 0 0 0 0 0 0 0 0 0
0 170 170 170 170 170 170 170 170 0
0 170 170 170 170 170 170 170 170 0
0 170 170 170 255 255 170 170 170 0
0 170 170 255 0 0 255 170 170 0
0 170 170 255 0 0 255 170 170 0
0 170 170 170 255 255 170 170 170 0
0 170 170 170 170 170 170 170 170 0
0 170 170 170 170 170 170 170 170 0
0 0 0 0 0 0 0 0 0 0
