P2
10 10
255
085 085 085 085 085 085 085 085 085 085
085 085 085 085 085 085 085 085 085 085
085 085 085 085 085 085 085 085 085 085
085 085 085 085 085 085 085 085 085 085
085 085 085 085 170 170 085 085 085 085
085 085 085 085 170 170 085 085 085 085
085 085 085 085 085 085 085 085 085 085
085 085 085 085 085 085 085 085 085 085
085 085 085 085 085 085 085 085 085 085
085 085 085 085 085 085 085 085 085 085
