P2
10 10
255
0 0 0 0 0 0 0 0 0 0
0 0 0 0 85 170 255 255 255 0
0 0 0 0 85 170 255 255 255 0
0 0 0 0 85 170 255 255 255 0
0 0 0 0 85 170 255 255 255 0
0 0 0 0 85 170 255 255 255 0
0 0 0 0 85 170 255 255 255 0
0 0 0 0 85 170 255 255 255 0
0 0 0 0 85 170 255 255 255 0
0 0 0 0 0 0 0 0 0 0
