P2
10 10
255
0 0 0 0 0 0 0 0 0 0
0 95 71 57 49 43 39 38 38 0
0 147 115 86 63 48 42 40 39 0
0 191 167 136 101 72 54 45 40 0
0 213 203 184 153 117 85 60 45 0
0 218 216 209 194 168 134 95 65 0
0 217 217 217 213 202 180 145 107 0
0 216 217 218 218 216 208 189 157 0
0 216 216 217 218 219 218 212 196 0
0 0 0 0 0 0 0 0 0 0
