P2
10 10
255
0 0 0 0 0 0 0 0 0 0
0 98 75 60 50 44 40 39 38 0
0 145 117 89 66 51 42 40 39 0
0 188 165 135 103 76 56 46 40 0
0 211 200 180 151 119 87 63 47 0
0 217 215 207 191 166 132 98 69 0
0 217 217 216 211 200 176 145 108 0
0 216 217 218 218 215 205 186 155 0
0 215 216 217 218 219 217 210 193 0
0 0 0 0 0 0 0 0 0 0
