P2
10 10
255
0 0 0 0 0 0 0 0 0 0
0 69 127 188 203 214 228 248 248 0
0 43 48 87 123 183 227 242 238 0
0 118 73 37 26 102 171 201 230 0
0 207 161 90 22 33 60 114 201 0
0 241 224 185 114 60 4 14 108 0
0 244 248 243 202 150 66 0 11 0
0 247 250 255 241 221 170 87 17 0
0 248 248 252 251 251 232 183 110 0
0 0 0 0 0 0 0 0 0 0
