P2
10 10
255
0 0 0 0 0 0 0 0 0 0
0 159 228 144 125 118 110 131 86 0
0 61 142 217 202 144 142 114 80 0
0 20 54 63 151 255 127 99 140 0
0 69 9 0 63 131 185 238 112 0
0 91 99 63 7 37 56 185 234 0
0 114 112 88 73 39 1 82 131 0
0 101 118 110 88 90 52 3 52 0
0 110 88 112 110 110 82 60 9 0
0 0 0 0 0 0 0 0 0 0
