P2
10 10
255
0 0 0 0 0 0 0 0 0 0
0 178 237 171 141 132 124 137 99 0
0 66 164 221 218 181 150 128 95 0
0 21 53 76 167 255 152 131 140 0
0 62 13 0 62 154 190 246 148 0
0 101 98 56 12 41 63 203 234 0
0 119 120 93 66 41 4 88 155 0
0 113 125 117 95 90 43 13 50 0
0 114 105 117 118 116 83 54 13 0
0 0 0 0 0 0 0 0 0 0
