P2
# 8-bit pgm gray
10 10
255
66  49  46  49  52  46  42  38  37  39
124  89  58  52  47  42  39  36  41  38
187 153 110  74  52  42  38  39  42  37
216 202 174 141  96  56  51  44  37  37
219 219 215 197 159 114  77  45  43  41
218 220 218 216 206 177 140  86  52  44
218 217 217 220 219 211 193 149 103  59
216 217 216 218 221 219 216 201 165 119
215 216 218 217 218 219 222 219 208 177
215 216 213 217 217 219 221 220 219 210
