P2
# 8-bit pgm gray
10 10
255
190 196 196 197 196 200 201 206 207 204
191 193 194 196 193 196 198 205 202 204
191 193 197 196 194 196 197 205 204 204
189 197 195 193 196 196 201 205 204 207
193 193 192 195 193 196 198 200 202 205
193 189 190 193 195 195 197 200 202 201
194 193 192 196 193 197 198 200 201 202
192 192 200 193 194 196 200 201 200 202
188 195 195 193 195 193 199 199 202 204
187 191 195 193 194 197 197 201 206 200
