P2
# 8-bit pgm gray
10 10
255
149 160 163 172 183 192 215 223 232 232
149 153 160 166 176 190 214 223 230 232
146 149 156 168 176 194 210 224 227 232
141 149 158 172 181 191 207 222 227 230
136 145 161 172 180 192 210 223 230 231
141 142 158 167 179 194 208 215 223 227
143 150 158 168 177 190 200 212 219 230
141 146 156 165 173 185 198 206 219 234
141 145 154 164 168 180 192 201 220 233
138 144 150 163 165 176 188 204 220 234
