P2
10 10
255
0 0 0 0 0 0 0 0 0 0
0 8 0 0 14 20 28 8 63 0
0 217 47 0 0 0 0 23 69 0
0 255 255 192 29 0 4 24 5 0
0 255 255 255 228 64 0 0 1 0
0 239 241 255 255 255 208 0 0 0
0 213 211 249 255 255 255 185 52 0
0 220 204 216 248 252 255 255 250 0
0 218 232 215 215 218 255 255 255 0
0 0 0 0 0 0 0 0 0 0
