P2
10 10
255
0 0 0 0 0 0 0 0 0 0
0 150 101 49 22 14 8 1 1 0
0 167 164 132 89 45 18 8 3 0
0 107 151 174 163 117 65 28 7 0
0 35 73 122 167 168 137 90 37 0
0 2 14 48 100 146 174 158 102 0
0 3 1 7 34 74 130 172 167 0
0 1 2 3 3 20 60 115 164 0
0 2 2 5 3 1 13 46 95 0
0 0 0 0 0 0 0 0 0 0
