P2
10 10
255
0 0 0 0 0 0 0 0 0 0
0 61 0 32 37 36 37 23 52 0
0 177 91 15 1 22 19 35 56 0
0 248 202 164 72 0 40 48 19 0
0 239 255 254 182 101 35 0 40 0
0 228 222 239 255 214 167 44 0 0
0 213 214 230 237 247 249 162 90 0
0 220 210 216 231 228 245 255 194 0
0 214 228 214 216 217 235 244 255 0
0 0 0 0 0 0 0 0 0 0
