P2
10 10
255
0 0 0 0 0 0 0 0 0 0
0 149 98 44 19 13 8 1 3 0
0 166 165 131 84 39 17 7 2 0
0 103 150 174 163 113 60 25 7 0
0 31 69 119 166 170 137 83 31 0
0 1 12 43 96 144 175 159 98 0
0 3 1 5 30 70 127 172 169 0
0 1 2 4 1 17 55 112 162 0
0 2 2 4 3 2 11 41 91 0
0 0 0 0 0 0 0 0 0 0
