P2
10 10
255
0 0 0 0 0 0 0 0 0 0
0 147 162 154 165 174 232 224 236 0
0 141 145 170 161 203 211 238 222 0
0 152 152 181 186 181 202 229 226 0
0 137 172 180 176 185 220 238 246 0
0 116 162 158 177 201 221 209 224 0
0 161 158 173 175 194 192 220 211 0
0 138 157 164 170 184 207 200 216 0
0 140 155 170 158 179 193 183 227 0
0 0 0 0 0 0 0 0 0 0
